<?xml version="1.0" encoding="utf-8"?>
<!-- Generator: Adobe Illustrator 26.2.1, SVG Export Plug-In . SVG Version: 6.00 Build 0)  -->
<svg version="1.1" id="Слой_1" xmlns="http://www.w3.org/2000/svg" xmlns:xlink="http://www.w3.org/1999/xlink" x="0px" y="0px"
	 viewBox="0 0 239.9 240" style="enable-background:new 0 0 239.9 240;" xml:space="preserve">
<style type="text/css">
	.st0{clip-path:url(#SVGID_00000039833572180490752810000011104445623463315125_);}
	.st1{fill:#CEE5FF;}
	.st2{fill:#133578;}
	.st3{fill:#FFFFFF;}
	.st4{fill:#4B3CFB;}
	.st5{fill:#DCDDEB;}
	.st6{fill:#0075FF;}
	.st7{fill:#EFF0F7;}
</style>
<g>
	<defs>
		<rect id="SVGID_1_" x="-15" y="0" width="270" height="240"/>
	</defs>
	<clipPath id="SVGID_00000102523724477920778340000010758305962273544590_">
		<use xlink:href="#SVGID_1_"  style="overflow:visible;"/>
	</clipPath>
	<g style="clip-path:url(#SVGID_00000102523724477920778340000010758305962273544590_);">
		<path class="st1" d="M120,240c66.2,0,120-53.7,120-120c0-66.3-53.7-120-120-120C53.7,0,0,53.7,0,120C0,186.3,53.7,240,120,240z"/>
		<path class="st2" d="M154.7,99.6l-124.9-22c-7.2-1.3-14.1,3.6-15.4,10.8L1.6,161.2c-1.3,7.2,3.6,14.1,10.8,15.4l124.9,22
			c7.2,1.3,14.1-3.6,15.4-10.8l12.8-72.8C166.8,107.8,162,100.9,154.7,99.6z"/>
		<path class="st3" d="M162.7,92.5l-124.9-22c-7.2-1.3-14.1,3.6-15.4,10.8L9.6,154.1c-1.3,7.2,3.6,14.1,10.8,15.4l124.9,22
			c7.2,1.3,14.1-3.6,15.4-10.8l12.8-72.8C174.8,100.7,169.9,93.8,162.7,92.5z"/>
		<path class="st4" d="M47.4,93.6l-12.3-2.2c-1.4-0.3-2.8,0.7-3.1,2.2l-1.3,7.5c-0.3,1.4,0.7,2.8,2.2,3.1l12.3,2.2
			c1.4,0.3,2.8-0.7,3.1-2.2l1.3-7.5C49.9,95.3,48.9,93.9,47.4,93.6z"/>
		<path class="st5" d="M80.5,154.3l-58.6-10.3c-1.4-0.3-2.8,0.7-3.1,2.2l-0.9,5c-0.3,1.4,0.7,2.8,2.2,3.1l58.6,10.3
			c1.4,0.3,2.8-0.7,3.1-2.2l0.9-5C82.9,155.9,82,154.5,80.5,154.3z"/>
		<g>
			<g>
				<path class="st6" d="M120.5,174.2c4.1,0.7,8-2,8.7-6.1c0.7-4.1-2-8-6.1-8.7c-4.1-0.7-8,2-8.7,6.1
					C113.6,169.6,116.4,173.5,120.5,174.2z"/>
			</g>
		</g>
		<g>
			<g>
				<path class="st1" d="M130.8,176.1c4.1,0.7,8-2,8.7-6.1c0.7-4.1-2-8-6.1-8.7c-4.1-0.7-8,2-8.7,6.1
					C124,171.4,126.7,175.3,130.8,176.1z"/>
			</g>
		</g>
		<path class="st7" d="M46.1,123l-19.7-3.5c-1.5-0.3-3,0.7-3.2,2.3l0,0c-0.3,1.5,0.7,3,2.3,3.2l19.7,3.5c1.5,0.3,3-0.7,3.2-2.3
			C48.7,124.7,47.6,123.3,46.1,123z"/>
		<path class="st7" d="M79.2,128.9l-19.7-3.5c-1.5-0.3-3,0.7-3.2,2.3l0,0c-0.3,1.5,0.7,3,2.3,3.2l19.7,3.5c1.5,0.3,3-0.7,3.2-2.3
			C81.8,130.6,80.8,129.1,79.2,128.9z"/>
		<path class="st7" d="M112.5,142.9L90.2,139c-1.7-0.3-3.4,0.8-3.7,2.6l0,0c-0.3,1.7,0.8,3.4,2.6,3.7l22.2,3.9
			c1.7,0.3,3.4-0.8,3.7-2.6C115.3,144.8,114.2,143.2,112.5,142.9z"/>
		<path class="st7" d="M145.5,140.5l-19.7-3.5c-1.5-0.3-3,0.7-3.2,2.3l0,0c-0.3,1.5,0.7,3,2.3,3.2l19.7,3.5c1.5,0.3,3-0.7,3.2-2.3
			C148,142.3,147,140.8,145.5,140.5z"/>
		<path class="st2" d="M203.8,35.9L75,58.7c-7.5,1.3-12.5,8.4-11.1,15.9l13.2,75.2c1.3,7.5,8.4,12.5,15.9,11.1l128.8-22.7
			c7.5-1.3,12.5-8.4,11.1-15.9l-13.2-75.2C218.4,39.6,211.3,34.6,203.8,35.9z"/>
		<path class="st6" d="M209.8,27.4L80.9,50.1c-7.5,1.3-12.5,8.4-11.1,15.9l13.2,75.2c1.3,7.5,8.4,12.5,15.9,11.1l128.8-22.7
			c7.5-1.3,12.5-8.4,11.1-15.9l-13.2-75.2C224.4,31.1,217.2,26.1,209.8,27.4z"/>
		<path class="st2" d="M226.6,43.6L70.7,71L74,89.6l155.9-27.5L226.6,43.6z"/>
		<path class="st2" d="M124.7,95.1l-37.6,6.6c-1.6,0.3-2.6,1.8-2.3,3.4l0,0c0.3,1.6,1.8,2.6,3.3,2.3l37.6-6.6
			c1.6-0.3,2.6-1.8,2.3-3.4C127.8,95.9,126.3,94.8,124.7,95.1z"/>
		<path class="st2" d="M158.6,89.1l-23,4.1c-1.6,0.3-2.6,1.8-2.3,3.4l0,0c0.3,1.6,1.8,2.6,3.3,2.3l23-4.1c1.6-0.3,2.6-1.8,2.3-3.4
			C161.7,89.9,160.2,88.8,158.6,89.1z"/>
	</g>
</g>
</svg>
