<?xml version="1.0" encoding="utf-8"?>
<!-- Generator: Adobe Illustrator 26.2.1, SVG Export Plug-In . SVG Version: 6.00 Build 0)  -->
<svg version="1.1" id="Capa_1" xmlns="http://www.w3.org/2000/svg" xmlns:xlink="http://www.w3.org/1999/xlink" x="0px" y="0px"
	 viewBox="0 0 59 59" style="enable-background:new 0 0 59 59;" xml:space="preserve">
<style type="text/css">
	.st0{fill:#29438C;}
	.st1{fill:#C7CAC7;}
	.st2{fill:#38454F;}
	.st3{fill:#0075FF;}
	.st4{fill:#153DBC;}
	.st5{fill:#294C8C;}
	.st6{fill:#E5E5E5;}
	.st7{fill:#556080;}
	.st8{fill:none;stroke:#38454F;stroke-width:2;stroke-linecap:round;stroke-miterlimit:10;}
</style>
<path class="st0" d="M24,19.9c-0.6,0-1-0.4-1-1V17c0-2.2-1.8-4-4-4s-4,1.8-4,4v1.9c0,0.6-0.4,1-1,1s-1-0.4-1-1V17c0-3.3,2.7-6,6-6
	s6,2.7,6,6v1.9C25,19.4,24.6,19.9,24,19.9z"/>
<path class="st1" d="M55,1.1c-4.4-2.9-9,0.2-9,4.4V13v38h4V13V5.5C50,4.7,50.7,4,51.5,4S53,4.7,53,5.5V9h4V4.9
	C57,3.4,56.3,1.9,55,1.1z"/>
<rect x="4" y="48" class="st2" width="4" height="10"/>
<rect x="30" y="48" class="st2" width="4" height="10"/>
<path class="st3" d="M19,18c-8.3,0-15,6.7-15,15v15h4v8h22v-8h4V33C34,24.7,27.3,18,19,18z"/>
<path class="st4" d="M26,54H12c-0.6,0-1-0.4-1-1s0.4-1,1-1h14c0.6,0,1,0.4,1,1S26.6,54,26,54z"/>
<path class="st4" d="M26,50H12c-0.6,0-1-0.4-1-1s0.4-1,1-1h14c0.6,0,1,0.4,1,1S26.6,50,26,50z"/>
<ellipse class="st5" cx="19" cy="33" rx="9" ry="10"/>
<circle class="st6" cx="19" cy="30" r="3"/>
<rect x="40" y="55" class="st7" width="16" height="3"/>
<rect x="44" y="51" class="st2" width="8" height="4"/>
<rect x="46" y="30" class="st2" width="4" height="4"/>
<path class="st7" d="M4,33c0-1.8,0.3-3.4,0.9-5C2,29.5,0,32.5,0,36c0,3.1,1.6,5.9,4,7.5V33z"/>
<line class="st8" x1="38" y1="58" x2="58" y2="58"/>
<g>
	<path class="st7" d="M53,11.3c0,3-1.1,5.9-3,8.1v5.7l3.3-3.3c2.4-2.4,3.7-5.6,3.7-8.9V9h-4V11.3z"/>
	<polygon class="st7" points="34,35.5 34,41.2 46,29.2 46,23.5 	"/>
</g>
</svg>
