<?xml version="1.0" encoding="utf-8"?>
<!-- Generator: Adobe Illustrator 26.2.1, SVG Export Plug-In . SVG Version: 6.00 Build 0)  -->
<svg version="1.1" id="Слой_1" xmlns="http://www.w3.org/2000/svg" xmlns:xlink="http://www.w3.org/1999/xlink" x="0px" y="0px"
	 viewBox="0 0 240.9 240" style="enable-background:new 0 0 240.9 240;" xml:space="preserve">
<style type="text/css">
	.st0{clip-path:url(#SVGID_00000078745969154782254870000015883644524688532126_);}
	.st1{fill:#CEE5FF;}
	.st2{fill:#FFFFFF;}
	.st3{fill:#133578;}
	.st4{fill:#1D53BB;}
	.st5{fill:#0075FF;}
	.st6{fill:url(#SVGID_00000080192198512990383380000013720718634018782388_);}
	.st7{fill:url(#SVGID_00000157281618704048390020000003976725621318024334_);}
	.st8{fill:url(#SVGID_00000106853549067246959910000005625189535891391413_);}
	.st9{fill-rule:evenodd;clip-rule:evenodd;fill:#133578;}
	.st10{fill:none;stroke:#133578;stroke-width:15.8151;stroke-miterlimit:10;}
</style>
<g>
	<defs>
		<rect id="SVGID_1_" y="0" width="258" height="240"/>
	</defs>
	<clipPath id="SVGID_00000042016441464048695460000017532177874820928129_">
		<use xlink:href="#SVGID_1_"  style="overflow:visible;"/>
	</clipPath>
	<g style="clip-path:url(#SVGID_00000042016441464048695460000017532177874820928129_);">
		<path class="st1" d="M120.5,240c66.5,0,120.5-53.7,120.5-120C240.9,53.7,187,0,120.5,0C53.9,0,0,53.7,0,120
			C0,186.3,53.9,240,120.5,240z"/>
		<g>
			<path class="st2" d="M59.4,40.7c-7.4,0-13.4,6-13.4,13.3c0,7.4,6,13.3,13.4,13.3c7.4,0,13.4-6,13.4-13.3
				C72.8,46.7,66.8,40.7,59.4,40.7z"/>
		</g>
		<g>
			<path class="st2" d="M72.8,75c0,12.6-10.3,22.9-22.9,22.9c-12.7,0-22.9-10.2-22.9-22.9c0-12.6,10.3-22.9,22.9-22.9
				C62.5,52.2,72.8,62.4,72.8,75z"/>
		</g>
		<g>
			<path class="st2" d="M111,63.6c0,14.7-12,26.7-26.8,26.7S57.5,78.3,57.5,63.6c0-14.7,12-26.7,26.8-26.7S111,48.9,111,63.6z"/>
		</g>
		<path class="st3" d="M96.9,157.8H30c-3.2,0-5.8-2.4-6-5.6l-5.4-75c-0.1-1.7,1.3-3.2,3-3.2h83.7c1.7,0,3.1,1.5,3,3.2l-5.4,75
			C102.7,155.4,100.1,157.8,96.9,157.8z"/>
		<path class="st4" d="M101.6,151.2H34.7c-3.2,0-5.8-2.4-6-5.6l-5.4-75c-0.1-1.7,1.3-3.2,3-3.2H110c1.7,0,3.1,1.5,3,3.2l-5.4,75
			C107.4,148.8,104.8,151.2,101.6,151.2z"/>
		<path class="st5" d="M110.2,85.4H26.1c-1.7,0-3-1.3-3-3v-12c0-1.7,1.3-3,3-3h84.1c1.7,0,3,1.3,3,3v12
			C113.2,84,111.9,85.4,110.2,85.4z"/>
		<g>
			
				<radialGradient id="SVGID_00000103957622240200454790000017454668808296179078_" cx="-128.47" cy="562.8486" r="1" gradientTransform="matrix(4.662518e-16 7.6145 7.6508 -4.684733e-16 -4278.1338 1003.6506)" gradientUnits="userSpaceOnUse">
				<stop  offset="0" style="stop-color:#268AFF"/>
				<stop  offset="1" style="stop-color:#0075FF"/>
			</radialGradient>
			<path style="fill:url(#SVGID_00000103957622240200454790000017454668808296179078_);" d="M35.7,25.4c0,4.2-3.4,7.6-7.6,7.6
				c-4.2,0-7.7-3.4-7.7-7.6c0-4.2,3.4-7.6,7.7-7.6C32.3,17.8,35.7,21.2,35.7,25.4z"/>
		</g>
		<g>
			
				<radialGradient id="SVGID_00000075877397986921549030000010421882303433146514_" cx="-118.1737" cy="568.566" r="1" gradientTransform="matrix(3.699040e-16 6.041 6.0702 -3.716950e-16 -3391.9265 737.7303)" gradientUnits="userSpaceOnUse">
				<stop  offset="0" style="stop-color:#268AFF"/>
				<stop  offset="1" style="stop-color:#0075FF"/>
			</radialGradient>
			<path style="fill:url(#SVGID_00000075877397986921549030000010421882303433146514_);" d="M65.5,23.8c0,3.3-2.7,6-6.1,6
				c-3.4,0-6.1-2.7-6.1-6s2.7-6,6.1-6C62.8,17.8,65.5,20.5,65.5,23.8z"/>
		</g>
		<g>
			
				<radialGradient id="SVGID_00000105417264209934658170000006069956352357838521_" cx="-118.1737" cy="568.566" r="1" gradientTransform="matrix(3.699040e-16 6.041 6.0702 -3.716950e-16 -3423.2512 760.6497)" gradientUnits="userSpaceOnUse">
				<stop  offset="0" style="stop-color:#268AFF"/>
				<stop  offset="1" style="stop-color:#0075FF"/>
			</radialGradient>
			<path style="fill:url(#SVGID_00000105417264209934658170000006069956352357838521_);" d="M34.2,46.8c0,3.3-2.7,6-6.1,6
				c-3.4,0-6.1-2.7-6.1-6c0-3.3,2.7-6,6.1-6C31.4,40.7,34.2,43.4,34.2,46.8z"/>
		</g>
		<path class="st3" d="M18.1,119.9c1.4,1.6,3.9,1.7,5.5,0.3l44.3-40.8c1.6-1.4,1.7-3.8,0.4-5.4c-1.4-1.6-3.8-1.7-5.4-0.4l-44.5,41
			C16.9,116,16.7,118.3,18.1,119.9z"/>
		<path class="st9" d="M193.7,170.3v-9.2c0-2.5,2.1-4.6,4.6-4.6h13.9c2.5,0,4.6,2.1,4.6,4.6v9.2h9.3c5.1,0,9.2,4.1,9.2,9.2v9.2
			c0,2.6-2.1,4.6-4.6,4.6h-50.8c-2.5,0-4.6-2.1-4.6-4.6v-9.2c0-5.1,4.1-9.2,9.3-9.2H193.7z"/>
		<path class="st9" d="M123.9,139.6v3.2c-30.7-11.3-74.1-17.8-74.1,26.7v5.6c-6.4,4.2-10.6,11.5-10.6,19.7
			c0,13.1,10.7,23.7,23.8,23.7c5.6,0,10.7-1.9,14.7-5.1h63.7c16.6,0,30.1-13.2,30.1-29.6c0-12.7-9.3-19.9-20.4-28
			c-0.2-0.2-0.5-0.3-0.7-0.5v-15.7c0-2.9-2.4-5.3-5.3-5.3h-15.9C126.2,134.4,123.9,136.7,123.9,139.6z"/>
		<path class="st10" d="M140.6,127.3V59.8c0-19.1,15.5-34.5,34.7-34.5c19.1,0,34.7,15.5,34.7,34.5v110.5"/>
		<path class="st4" d="M152.1,142.7H129v-18.4c0-2.6,2.1-4.6,4.6-4.6h13.9c2.5,0,4.6,2.1,4.6,4.6V142.7z"/>
		<path class="st4" d="M221.4,174.9h-23.1v-18.4c0-2.5,2.1-4.6,4.6-4.6h13.9c2.5,0,4.6,2.1,4.6,4.6V174.9z"/>
		<path class="st5" d="M235.3,188.7h-50.8c-2.5,0-4.6-2.1-4.6-4.6v-9.2c0-5.1,4.1-9.2,9.3-9.2h41.6c5.1,0,9.2,4.1,9.2,9.2v9.2
			C239.9,186.7,237.9,188.7,235.3,188.7z"/>
		<path class="st5" d="M56.9,203.5h91.6c16.6,0,30.1-13.2,30.1-29.6c0-12.7-9.3-19.9-20.4-28c-16-10.9-101.3-48.6-101.3,13.7V203.5z
			"/>
		<path class="st4" d="M93.9,184.9c0,13.1-10.7,23.7-23.8,23.7c-13.1,0-23.8-10.6-23.8-23.7c0-13.1,10.7-23.7,23.8-23.7
			C83.2,161.3,93.9,171.9,93.9,184.9z"/>
	</g>
</g>
</svg>
